<svg width="210" height="35" viewBox="0 0 210 35" fill="none" xmlns="http://www.w3.org/2000/svg">
<g clip-path="url(#clip0)">
<path d="M63.0554 18.7025V16.2881L0 15.9912V18.4057L3.07711 19.6129C3.58155 20.3848 13.2265 35.0002 31.6791 35.0002C37.3853 35.0155 43.0024 33.6122 48.0059 30.9214C53.0093 28.2305 57.236 24.34 60.2911 19.6129" fill="black"/>
<path d="M29.8327 6.03619C18.7348 6.03619 4.61043 11.4687 4.61043 11.4687L2.76416 14.4374H59.9782L58.7473 12.0724C47.0644 6.63981 33.5252 6.03619 33.5252 6.03619V4.22534L35.9868 3.0181V0H27.3709V3.0181L29.8327 4.22534" fill="url(#paint0_linear)"/>
<path opacity="0.7" d="M80.8748 27.9819C81.2903 27.9819 81.6335 27.8465 81.8954 27.5755C82.1664 27.3045 82.3019 26.9703 82.3019 26.5819C82.3019 26.1936 82.1664 25.8594 81.8954 25.5884C81.6245 25.3174 81.2812 25.1819 80.8748 25.1819C80.4683 25.1819 80.1251 25.3174 79.8541 25.5884C79.5832 25.8594 79.4477 26.1936 79.4477 26.5819C79.4477 26.9703 79.5832 27.3045 79.8541 27.5755C80.1341 27.8465 80.4683 27.9819 80.8748 27.9819ZM77.9935 30.0052L74.7419 25.2903H74.0645V31.6129H74.9045V26.889L78.1561 31.6129H78.8335V25.2903H77.9935V30.0052ZM80.3599 27.0968C80.098 26.8168 80.098 26.3471 80.3599 26.0671C80.6219 25.7871 81.1277 25.7871 81.3896 26.0671C81.6515 26.3471 81.6515 26.8168 81.3896 27.0968C81.1277 27.3768 80.6219 27.3768 80.3599 27.0968ZM82.1935 29.3097V28.56H79.5561V29.3097H82.1935ZM83.2137 25.8684L83.4214 26.591L84.7672 26.1936V31.6129H85.5982V25.2903H84.8756L83.2137 25.8684ZM89.7028 27.0968V31.6129H90.4886V27.8465H92.828V31.6129H93.6138V27.0968H89.7028ZM98.8925 31.0439C99.3532 30.5832 99.588 30.0232 99.588 29.3548C99.588 28.6865 99.3532 28.1265 98.8925 27.6658C98.4319 27.2052 97.8629 26.9794 97.2035 26.9794C96.5442 26.9794 95.9751 27.2052 95.5145 27.6658C95.0538 28.1265 94.828 28.6865 94.828 29.3548C94.828 30.0232 95.0538 30.5832 95.5145 31.0439C95.9751 31.5045 96.5442 31.7303 97.2035 31.7303C97.8629 31.7303 98.4319 31.5045 98.8925 31.0439ZM97.2035 30.9626C96.7609 30.9626 96.3816 30.809 96.0745 30.5019C95.7674 30.1948 95.6138 29.8155 95.6138 29.3548C95.6138 28.8942 95.7674 28.5148 96.0745 28.2077C96.3816 27.9006 96.7609 27.7471 97.2035 27.7471C97.6551 27.7471 98.0345 27.9006 98.3416 28.2077C98.6487 28.5148 98.8022 28.8942 98.8022 29.3548C98.8022 29.8155 98.6487 30.1948 98.3416 30.5019C98.0345 30.809 97.6551 30.9626 97.2035 30.9626ZM103.314 27.0968V31.6129H104.1V27.8465H106.44V31.6129H107.225V27.0968H103.314ZM111.185 26.9794C110.436 26.9794 109.867 27.2774 109.478 27.8735V27.0968H108.692V33.4194H109.478V30.8361C109.867 31.4323 110.436 31.7303 111.185 31.7303C111.818 31.7303 112.36 31.5045 112.802 31.0439C113.245 30.5832 113.471 30.0142 113.471 29.3548C113.471 28.6955 113.245 28.1355 112.802 27.6748C112.36 27.2142 111.818 26.9794 111.185 26.9794ZM111.086 30.9716C110.625 30.9716 110.246 30.8181 109.939 30.511C109.632 30.1948 109.478 29.8155 109.478 29.3548C109.478 28.8942 109.632 28.5148 109.939 28.2077C110.246 27.8916 110.625 27.7381 111.086 27.7381C111.538 27.7381 111.917 27.8916 112.224 28.2077C112.531 28.5148 112.685 28.8942 112.685 29.3548C112.685 29.8155 112.531 30.1948 112.224 30.511C111.917 30.8181 111.538 30.9716 111.086 30.9716ZM118.491 31.0439C118.951 30.5832 119.186 30.0232 119.186 29.3548C119.186 28.6865 118.951 28.1265 118.491 27.6658C118.03 27.2052 117.461 26.9794 116.802 26.9794C116.142 26.9794 115.573 27.2052 115.113 27.6658C114.652 28.1265 114.426 28.6865 114.426 29.3548C114.426 30.0232 114.652 30.5832 115.113 31.0439C115.573 31.5045 116.142 31.7303 116.802 31.7303C117.461 31.7303 118.03 31.5045 118.491 31.0439ZM116.802 30.9626C116.359 30.9626 115.98 30.809 115.673 30.5019C115.366 30.1948 115.212 29.8155 115.212 29.3548C115.212 28.8942 115.366 28.5148 115.673 28.2077C115.98 27.9006 116.359 27.7471 116.802 27.7471C117.253 27.7471 117.633 27.9006 117.94 28.2077C118.247 28.5148 118.4 28.8942 118.4 29.3548C118.4 29.8155 118.247 30.1948 117.94 30.5019C117.633 30.809 117.253 30.9626 116.802 30.9626ZM124.091 27.0968H120.758V29.1923C120.758 29.9058 120.613 30.4658 120.324 30.8632H119.773V32.8232H120.55V31.6129H123.937V32.8232H124.714V30.8632H124.091V27.0968ZM121.218 30.8632C121.426 30.4206 121.535 29.8697 121.535 29.1923V27.8284H123.314V30.8632H121.218ZM129.395 27.8735C129.007 27.2774 128.438 26.9794 127.688 26.9794C127.056 26.9794 126.514 27.2142 126.071 27.6748C125.628 28.1355 125.403 28.6955 125.403 29.3548C125.403 30.0142 125.628 30.5832 126.071 31.0439C126.514 31.5045 127.056 31.7303 127.688 31.7303C128.438 31.7303 129.007 31.4323 129.395 30.8361V31.6129H130.181V27.0968H129.395V27.8735ZM127.787 30.9716C127.336 30.9716 126.956 30.8181 126.649 30.511C126.342 30.1948 126.188 29.8155 126.188 29.3548C126.188 28.8942 126.342 28.5148 126.649 28.2077C126.956 27.8916 127.336 27.7381 127.787 27.7381C128.248 27.7381 128.627 27.8916 128.934 28.2077C129.241 28.5148 129.395 28.8942 129.395 29.3548C129.395 29.8155 129.241 30.1948 128.934 30.511C128.627 30.8181 128.248 30.9716 127.787 30.9716ZM135.301 29.2826L137.107 27.0968H136.186L134.587 29.0929V27.0968H133.811V29.0929L132.212 27.0968H131.3L133.097 29.2826L131.209 31.6129H132.122L133.811 29.4723V31.6129H134.587V29.4723L136.276 31.6129H137.198L135.301 29.2826ZM142.194 29.7161C142.212 29.5987 142.221 29.4813 142.221 29.3639C142.221 28.7045 142.013 28.1445 141.588 27.6839C141.173 27.2142 140.631 26.9794 139.972 26.9794C139.276 26.9794 138.707 27.2052 138.265 27.6568C137.822 28.1084 137.605 28.6774 137.605 29.3548C137.605 30.0413 137.831 30.6103 138.274 31.0619C138.725 31.5045 139.312 31.7303 140.026 31.7303C140.911 31.7303 141.57 31.3871 142.013 30.7097L141.345 30.3303C141.074 30.7729 140.64 30.9897 140.044 30.9897C139.186 30.9897 138.563 30.52 138.409 29.7161H142.194ZM139.972 27.72C140.694 27.72 141.29 28.1716 141.426 29.0297H138.409C138.545 28.2348 139.132 27.72 139.972 27.72ZM147.514 29.2826L149.672 27.0968H148.661L146.71 29.0929V27.0968H145.924V31.6129H146.71V29.4723L148.769 31.6129H149.745L147.514 29.2826ZM154.071 27.8735C153.683 27.2774 153.114 26.9794 152.364 26.9794C151.732 26.9794 151.19 27.2142 150.747 27.6748C150.305 28.1355 150.079 28.6955 150.079 29.3548C150.079 30.0142 150.305 30.5832 150.747 31.0439C151.19 31.5045 151.732 31.7303 152.364 31.7303C153.114 31.7303 153.683 31.4323 154.071 30.8361V31.6129H154.857V27.0968H154.071V27.8735ZM152.463 30.9716C152.012 30.9716 151.632 30.8181 151.325 30.511C151.018 30.1948 150.865 29.8155 150.865 29.3548C150.865 28.8942 151.018 28.5148 151.325 28.2077C151.632 27.8916 152.012 27.7381 152.463 27.7381C152.924 27.7381 153.303 27.8916 153.61 28.2077C153.918 28.5148 154.071 28.8942 154.071 29.3548C154.071 29.8155 153.918 30.1948 153.61 30.511C153.303 30.8181 152.924 30.9716 152.463 30.9716ZM158.758 29.3006C159.119 29.0839 159.3 28.7497 159.3 28.289C159.3 27.5574 158.685 26.9794 157.701 26.9794C156.906 26.9794 156.346 27.3135 156.03 27.9729L156.671 28.3432C156.852 27.9187 157.195 27.7019 157.701 27.7019C158.216 27.7019 158.532 27.9639 158.532 28.3523C158.532 28.7406 158.27 28.9755 157.809 28.9755H157.322V29.689H157.981C158.442 29.689 158.731 29.9419 158.731 30.3032C158.731 30.7097 158.387 30.9987 157.782 30.9987C157.177 30.9987 156.789 30.7548 156.617 30.2581L155.958 30.6465C156.265 31.369 156.87 31.7303 157.773 31.7303C158.884 31.7303 159.507 31.1342 159.507 30.3755C159.507 29.8606 159.254 29.5084 158.758 29.3006ZM164.369 27.8735C163.981 27.2774 163.412 26.9794 162.662 26.9794C162.03 26.9794 161.488 27.2142 161.045 27.6748C160.603 28.1355 160.377 28.6955 160.377 29.3548C160.377 30.0142 160.603 30.5832 161.045 31.0439C161.488 31.5045 162.03 31.7303 162.662 31.7303C163.412 31.7303 163.981 31.4323 164.369 30.8361V31.6129H165.155V27.0968H164.369V27.8735ZM162.761 30.9716C162.31 30.9716 161.93 30.8181 161.623 30.511C161.316 30.1948 161.163 29.8155 161.163 29.3548C161.163 28.8942 161.316 28.5148 161.623 28.2077C161.93 27.8916 162.31 27.7381 162.761 27.7381C163.222 27.7381 163.601 27.8916 163.908 28.2077C164.215 28.5148 164.369 28.8942 164.369 29.3548C164.369 29.8155 164.215 30.1948 163.908 30.511C163.601 30.8181 163.222 30.9716 162.761 30.9716ZM169.742 28.9755H167.403V27.0968H166.617V31.6129H167.403V29.7252H169.742V31.6129H170.528V27.0968H169.742V28.9755ZM175.806 31.0439C176.267 30.5832 176.502 30.0232 176.502 29.3548C176.502 28.6865 176.267 28.1265 175.806 27.6658C175.345 27.2052 174.776 26.9794 174.117 26.9794C173.458 26.9794 172.889 27.2052 172.428 27.6658C171.967 28.1265 171.742 28.6865 171.742 29.3548C171.742 30.0232 171.967 30.5832 172.428 31.0439C172.889 31.5045 173.458 31.7303 174.117 31.7303C174.776 31.7303 175.345 31.5045 175.806 31.0439ZM174.117 30.9626C173.674 30.9626 173.295 30.809 172.988 30.5019C172.681 30.1948 172.527 29.8155 172.527 29.3548C172.527 28.8942 172.681 28.5148 172.988 28.2077C173.295 27.9006 173.674 27.7471 174.117 27.7471C174.569 27.7471 174.948 27.9006 175.255 28.2077C175.562 28.5148 175.716 28.8942 175.716 29.3548C175.716 29.8155 175.562 30.1948 175.255 30.5019C174.948 30.809 174.569 30.9626 174.117 30.9626ZM180.707 29.2916C181.032 29.0839 181.195 28.7587 181.195 28.3252C181.195 27.5935 180.68 27.0968 179.777 27.0968H177.699V31.6129H179.958C180.888 31.6129 181.403 31.089 181.403 30.3394C181.403 29.8335 181.168 29.4813 180.707 29.2916ZM179.741 27.8013C180.201 27.8013 180.427 27.991 180.427 28.3794C180.427 28.7858 180.201 28.9845 179.741 28.9845H178.467V27.8013H179.741ZM178.467 30.8994V29.68H179.912C180.373 29.68 180.626 29.9058 180.626 30.2761C180.626 30.6736 180.373 30.8994 179.912 30.8994H178.467Z" fill="#2F2F2F"/>
<path d="M83.2911 6.88709L78.128 12.5108L79.1261 6.88709H76.0551L73.6943 20.3226H76.7653L77.8785 13.9311L81.3909 20.3226H84.5579L80.8151 13.4897L86.9187 6.88709H83.2911ZM98.5597 20.3226L96.3524 6.88709H92.4369L85.5081 20.3226H88.8669L89.9418 18.2113H94.9321L95.2008 20.3226H98.5597ZM93.9532 10.246L94.5866 15.3323H91.3813L93.9532 10.246ZM110.458 10.7834C110.669 9.57419 110.381 8.59532 109.575 7.80838C108.788 7.02145 107.733 6.61839 106.447 6.61839C104.105 6.61839 102.359 7.57806 101.188 9.47822L103.702 11.0713C104.297 10.0156 105.046 9.49742 105.948 9.49742C107.023 9.49742 107.483 9.97726 107.349 10.8218C107.176 11.7047 106.504 12.1461 105.295 12.1461H103.971L103.491 14.8716H105.199C106.447 14.8716 107.023 15.3898 106.869 16.2919C106.696 17.1556 105.89 17.7123 104.796 17.7123C103.414 17.7123 102.781 17.0789 102.455 15.9464L99.6523 17.4052C100.286 19.4013 101.879 20.5913 104.355 20.5913C107.406 20.5913 109.441 19.1902 109.882 16.7142C110.132 15.3323 109.71 14.2574 108.635 13.5089C109.652 12.8947 110.247 11.9926 110.458 10.7834ZM123.253 20.3226L121.046 6.88709H117.13L110.202 20.3226H113.56L114.635 18.2113H119.626L119.894 20.3226H123.253ZM118.647 10.246L119.28 15.3323H116.075L118.647 10.246ZM133.727 12.031H129.505L130.407 6.88709H127.336L124.975 20.3226H128.046L128.986 14.9868H133.209L132.269 20.3226H135.339L137.7 6.88709H134.629L133.727 12.031ZM148.725 11.8774L149.09 9.8429H154.656L155.174 6.88709H146.537L144.176 20.3226H149.359C152.276 20.3226 154.215 18.8447 154.675 16.2919C154.886 15.0252 154.637 13.9695 153.888 13.1442C153.159 12.2997 152.142 11.8774 150.856 11.8774H148.725ZM151.643 16.1C151.489 17.0021 150.894 17.4435 149.858 17.4435H147.746L148.226 14.7564H150.338C151.259 14.7564 151.796 15.1787 151.643 16.1ZM166.69 6.88709H158.341L155.98 20.3226H164.426L164.944 17.3668H159.57L159.992 14.9676H164.79L165.309 12.0885H160.491L160.894 9.8429H166.172L166.69 6.88709ZM165.774 20.361C168.211 20.5913 171.129 20.0347 172.031 14.8716L172.914 9.8429H176.061L174.219 20.3226H177.29L179.651 6.88709H170.361L168.941 14.9868C168.557 17.1173 167.751 17.6547 166.273 17.4819L165.774 20.361Z" fill="#2F2F2F"/>
<path d="M139.699 20.5913C140.793 20.5913 141.676 19.8235 141.849 18.8063C142.022 17.8082 141.35 16.9445 140.352 16.9445C139.296 16.9445 138.394 17.7123 138.222 18.7295C138.049 19.7276 138.701 20.5913 139.699 20.5913Z" fill="#FF9957"/>
</g>
<defs>
<linearGradient id="paint0_linear" x1="24.2232" y1="26.6285" x2="38.8527" y2="0.803511" gradientUnits="userSpaceOnUse">
<stop stop-color="#FFAC5F"/>
<stop offset="1" stop-color="#DB6A01"/>
</linearGradient>
<clipPath id="clip0">
<path d="M0 0H210V20C210 28.2843 203.284 35 195 35H15C6.71573 35 0 28.2843 0 20V0Z" fill="white"/>
</clipPath>
</defs>
</svg>
