<svg width="33" height="33" viewBox="0 0 33 33" fill="none" xmlns="http://www.w3.org/2000/svg">
<circle cx="16.5" cy="16.5" r="16.25" stroke="black" stroke-opacity="0.15" stroke-width="0.5"/>
<path d="M16.4996 9C13.4549 9 10.9775 11.4774 10.9775 14.5224C10.9775 15.3167 11.1401 16.075 11.4605 16.7765C12.8412 19.7978 15.4883 22.9876 16.2669 23.8932C16.3252 23.9609 16.4103 23.9998 16.4998 23.9998C16.5893 23.9998 16.6743 23.9609 16.7327 23.8932C17.511 22.9878 20.1581 19.7981 21.5392 16.7765C21.8598 16.075 22.0222 15.3167 22.0222 14.5224C22.0219 11.4774 19.5445 9 16.4996 9ZM16.4996 17.3907C14.918 17.3907 13.6311 16.1039 13.6311 14.5222C13.6311 12.9405 14.918 11.6536 16.4996 11.6536C18.0813 11.6536 19.3681 12.9405 19.3681 14.5222C19.3683 16.1039 18.0814 17.3907 16.4996 17.3907Z" fill="#FF9957"/>
</svg>
